<?xml version="1.0" encoding="UTF-8" standalone="no"?>
<svg
   xmlns:dc="http://purl.org/dc/elements/1.1/"
   xmlns:cc="http://creativecommons.org/ns#"
   xmlns:rdf="http://www.w3.org/1999/02/22-rdf-syntax-ns#"
   xmlns:svg="http://www.w3.org/2000/svg"
   xmlns="http://www.w3.org/2000/svg"
   xmlns:sodipodi="http://sodipodi.sourceforge.net/DTD/sodipodi-0.dtd"
   xmlns:inkscape="http://www.inkscape.org/namespaces/inkscape"
   id="Layer_3"
   data-name="Layer 3"
   viewBox="0 0 150.68 149.75"
   version="1.1"
   sodipodi:docname="gui_next.svg"
   inkscape:export-filename="/home/alex/Gamedev/PixelOrb(Itch)/GUI/svg/gui_next.png"
   inkscape:export-xdpi="128.21368"
   inkscape:export-ydpi="128.21368"
   inkscape:version="1.0.1 (3bc2e813f5, 2020-09-07)">
  <metadata
     id="metadata15">
    <rdf:RDF>
      <cc:Work
         rdf:about="">
        <dc:format>image/svg+xml</dc:format>
        <dc:type
           rdf:resource="http://purl.org/dc/dcmitype/StillImage" />
      </cc:Work>
    </rdf:RDF>
  </metadata>
  <sodipodi:namedview
     pagecolor="#ffffff"
     bordercolor="#666666"
     borderopacity="1"
     objecttolerance="10"
     gridtolerance="10"
     guidetolerance="10"
     inkscape:pageopacity="0"
     inkscape:pageshadow="2"
     inkscape:window-width="928"
     inkscape:window-height="999"
     id="namedview13"
     showgrid="false"
     inkscape:zoom="1.9808434"
     inkscape:cx="69.891018"
     inkscape:cy="149.77165"
     inkscape:window-x="970"
     inkscape:window-y="59"
     inkscape:window-maximized="0"
     inkscape:current-layer="Layer_3" />
  <defs
     id="defs4">
    <style
       id="style2">.cls-1{fill:#212121;}</style>
  </defs>
  <title
     id="title6">gui</title>
  <path
     class="cls-1"
     d="M37.49,128.86a3.65,3.65,0,0,1-1.63-.39,3.58,3.58,0,0,1-2-3.19V24.94a3.58,3.58,0,0,1,5.77-2.84L107,74a3.57,3.57,0,0,1-.09,5.74l-67.3,48.48A3.66,3.66,0,0,1,37.49,128.86Zm0-105.51a1.51,1.51,0,0,0-.71.17,1.55,1.55,0,0,0-.88,1.42V125.28a1.58,1.58,0,0,0,2.51,1.28l67.3-48.47a1.58,1.58,0,0,0,0-2.54L38.46,23.68A1.57,1.57,0,0,0,37.5,23.35Z"
     id="path8" />
  <path
     class="cls-1"
     d="M77.12,129.62a1,1,0,0,1-.74-.33,1,1,0,0,1,.07-1.41l56.94-51a2.34,2.34,0,0,0-.11-3.6L76.5,28.64a1,1,0,0,1,1.24-1.57l56.78,44.68a4.35,4.35,0,0,1,.21,6.66l-56.94,51A1,1,0,0,1,77.12,129.62Z"
     id="path10" />
</svg>
