<?xml version="1.0" encoding="UTF-8" standalone="no"?>
<svg
   xmlns:dc="http://purl.org/dc/elements/1.1/"
   xmlns:cc="http://creativecommons.org/ns#"
   xmlns:rdf="http://www.w3.org/1999/02/22-rdf-syntax-ns#"
   xmlns:svg="http://www.w3.org/2000/svg"
   xmlns="http://www.w3.org/2000/svg"
   xmlns:sodipodi="http://sodipodi.sourceforge.net/DTD/sodipodi-0.dtd"
   xmlns:inkscape="http://www.inkscape.org/namespaces/inkscape"
   id="Layer_3"
   data-name="Layer 3"
   viewBox="0 0 150.22 149.75"
   version="1.1"
   sodipodi:docname="gui_nosound.svg"
   inkscape:version="1.0.1 (3bc2e813f5, 2020-09-07)">
  <metadata
     id="metadata17">
    <rdf:RDF>
      <cc:Work
         rdf:about="">
        <dc:format>image/svg+xml</dc:format>
        <dc:type
           rdf:resource="http://purl.org/dc/dcmitype/StillImage" />
        <dc:title>gui</dc:title>
      </cc:Work>
    </rdf:RDF>
  </metadata>
  <sodipodi:namedview
     pagecolor="#ffffff"
     bordercolor="#666666"
     borderopacity="1"
     objecttolerance="10"
     gridtolerance="10"
     guidetolerance="10"
     inkscape:pageopacity="0"
     inkscape:pageshadow="2"
     inkscape:window-width="1814"
     inkscape:window-height="999"
     id="namedview15"
     showgrid="false"
     inkscape:zoom="1.4006678"
     inkscape:cx="-29.26973"
     inkscape:cy="38.483068"
     inkscape:window-x="84"
     inkscape:window-y="59"
     inkscape:window-maximized="0"
     inkscape:current-layer="Layer_3" />
  <defs
     id="defs4">
    <inkscape:perspective
       sodipodi:type="inkscape:persp3d"
       inkscape:vp_x="0 : 74.875 : 1"
       inkscape:vp_y="0 : 1000 : 0"
       inkscape:vp_z="150.22 : 74.875 : 1"
       inkscape:persp3d-origin="75.11 : 49.916667 : 1"
       id="perspective27" />
    <style
       id="style2">.cls-1{fill:#212121;}</style>
  </defs>
  <title
     id="title6">gui</title>
  <path
     class="cls-1"
     d="M70.86,126.91A8.46,8.46,0,0,1,65,124.52L44.31,104.78a12.36,12.36,0,0,0-8.76-3.44l-7,.1a14.84,14.84,0,0,1-15-14.82V69.55A10.46,10.46,0,0,1,23.92,59.1h6a23.08,23.08,0,0,0,15.6-6.05L66.24,34.17A7.9,7.9,0,0,1,79.47,40v78.31a8.44,8.44,0,0,1-5.2,7.88A8.58,8.58,0,0,1,70.86,126.91ZM35.72,99.34a14.37,14.37,0,0,1,10,4l20.68,19.73a6.56,6.56,0,0,0,11.1-4.75V40a5.9,5.9,0,0,0-9.88-4.36L46.91,54.53A25.11,25.11,0,0,1,30,61.1h-6a8.46,8.46,0,0,0-8.45,8.45V86.62a12.82,12.82,0,0,0,13,12.82l7.05-.1Z"
     id="path8" />
  <path
     class="cls-1"
     d="M102.75,104.59a1,1,0,0,1-.7-1.72,32.67,32.67,0,0,0-.74-47.57,1,1,0,0,1,1.35-1.47,34.66,34.66,0,0,1,.79,50.47A1,1,0,0,1,102.75,104.59Z"
     id="path10" />
  <path
     style="fill:none;stroke:#212121;stroke-width:2.47074;stroke-linecap:round;stroke-linejoin:round;stroke-miterlimit:4;stroke-dasharray:none;stroke-opacity:1"
     d="M 135.52824,33.248979 22.218401,128.96511"
     id="path33" />
  <path
     class="cls-1"
     d="M117,126.25a1,1,0,0,1-.7-1.71C120.7,120.23,135.12,104.29,135,80c-.07-25.16-15.45-41.19-20.16-45.5A1,1,0,1,1,116.23,33C121.09,37.46,137,54,137,80c.08,25.1-14.8,41.55-19.36,46A1,1,0,0,1,117,126.25Z"
     id="path12" />
  <path
     style="fill:none;stroke:#212121;stroke-width:2.47074;stroke-linecap:round;stroke-linejoin:round;stroke-miterlimit:4;stroke-dasharray:none;stroke-opacity:1"
     d="M 21.934926,33.224097 135.24476,128.94024"
     id="path33-7" />
</svg>
