<?xml version="1.0" encoding="UTF-8" standalone="no"?>
<svg
   xmlns:dc="http://purl.org/dc/elements/1.1/"
   xmlns:cc="http://creativecommons.org/ns#"
   xmlns:rdf="http://www.w3.org/1999/02/22-rdf-syntax-ns#"
   xmlns:svg="http://www.w3.org/2000/svg"
   xmlns="http://www.w3.org/2000/svg"
   xmlns:sodipodi="http://sodipodi.sourceforge.net/DTD/sodipodi-0.dtd"
   xmlns:inkscape="http://www.inkscape.org/namespaces/inkscape"
   id="Layer_3"
   data-name="Layer 3"
   viewBox="0 0 50 50"
   version="1.1"
   sodipodi:docname="gui_nosound.svg"
   inkscape:version="1.0.1 (3bc2e813f5, 2020-09-07)"
   width="50"
   height="50">
  <metadata
     id="metadata17">
    <rdf:RDF>
      <cc:Work
         rdf:about="">
        <dc:format>image/svg+xml</dc:format>
        <dc:type
           rdf:resource="http://purl.org/dc/dcmitype/StillImage" />
        <dc:title>gui</dc:title>
      </cc:Work>
    </rdf:RDF>
  </metadata>
  <sodipodi:namedview
     pagecolor="#ffffff"
     bordercolor="#666666"
     borderopacity="1"
     objecttolerance="10"
     gridtolerance="10"
     guidetolerance="10"
     inkscape:pageopacity="0"
     inkscape:pageshadow="2"
     inkscape:window-width="1814"
     inkscape:window-height="999"
     id="namedview15"
     showgrid="false"
     inkscape:zoom="5.6026712"
     inkscape:cx="16.192766"
     inkscape:cy="54.053564"
     inkscape:window-x="104"
     inkscape:window-y="39"
     inkscape:window-maximized="0"
     inkscape:current-layer="Layer_3"
     inkscape:document-rotation="0" />
  <defs
     id="defs4">
    <inkscape:perspective
       sodipodi:type="inkscape:persp3d"
       inkscape:vp_x="0 : -99.25 : 1"
       inkscape:vp_y="0 : 6.6777963 : 0"
       inkscape:vp_z="1 : -99.25 : 1"
       inkscape:persp3d-origin="0.5 : -99.416667 : 1"
       id="perspective27" />
    <style
       id="style2">.cls-1{fill:#212121;}</style>
  </defs>
  <title
     id="title6">gui</title>
  <path
     class="cls-1"
     d="m 23.123935,40.724813 a 2.8785281,2.8785281 0 0 1 -1.993874,-0.813201 l -7.039806,-6.716565 a 4.2055092,4.2055092 0 0 0 -2.980602,-1.170466 l -2.3817608,0.03402 A 5.0493331,5.0493331 0 0 1 3.6241185,27.016079 V 21.207985 A 3.5590313,3.5590313 0 0 1 7.152527,17.652356 H 9.1940363 A 7.8530059,7.8530059 0 0 0 14.50196,15.593834 l 7.050012,-6.4239496 a 2.6879873,2.6879873 0 0 1 4.501529,1.9836666 v 26.6451 a 2.8717232,2.8717232 0 0 1 -1.769309,2.681182 2.9193583,2.9193583 0 0 1 -1.160257,0.24498 z m -11.95644,-9.380734 a 4.8894149,4.8894149 0 0 1 3.402515,1.361006 l 7.036402,6.713163 a 2.2320502,2.2320502 0 0 0 3.776793,-1.616195 V 11.153551 A 2.0074842,2.0074842 0 0 0 22.021519,9.670054 L 14.97491,16.097407 A 8.5437166,8.5437166 0 0 1 9.2212565,18.332859 H 7.1797472 A 2.8785281,2.8785281 0 0 0 4.304622,21.207985 v 5.808094 a 4.362025,4.362025 0 0 0 4.4232702,4.362024 l 2.3987718,-0.03402 z"
     id="path8"
     style="stroke-width:0.340252" />
  <path
     class="cls-1"
     d="M 33.974557,33.130399 A 0.34025156,0.34025156 0 0 1 33.736381,32.545167 11.116018,11.116018 0 0 0 33.484595,16.3594 a 0.34025156,0.34025156 0 0 1 0.459339,-0.50017 11.793119,11.793119 0 0 1 0.268799,17.172496 0.34025156,0.34025156 0 0 1 -0.238176,0.09867 z"
     id="path10"
     style="stroke-width:0.340252" />
  <path
     style="fill:none;stroke:#212121;stroke-width:0.840673;stroke-linecap:round;stroke-linejoin:round;stroke-miterlimit:4;stroke-dasharray:none;stroke-opacity:1"
     d="M 45.127404,8.8565057 6.5735556,41.424068"
     id="path33" />
  <path
     class="cls-1"
     d="m 38.823142,40.500248 a 0.34025156,0.34025156 0 0 1 -0.238177,-0.58183 C 40.082072,38.451933 44.988499,33.028324 44.94767,24.763613 44.923855,16.202884 39.690783,10.748652 38.088198,9.2821672 a 0.34791035,0.34791035 0 1 1 0.472949,-0.510377 c 1.653623,1.5175228 7.067026,7.1452828 7.067026,15.9918228 0.02722,8.540315 -5.035724,14.137453 -6.587271,15.651572 a 0.34025156,0.34025156 0 0 1 -0.21776,0.08506 z"
     id="path12"
     style="stroke-width:0.340252" />
  <path
     style="fill:none;stroke:#212121;stroke-width:0.840673;stroke-linecap:round;stroke-linejoin:round;stroke-miterlimit:4;stroke-dasharray:none;stroke-opacity:1"
     d="M 6.4771023,8.8480399 45.03095,41.415607"
     id="path33-7" />
</svg>
