<?xml version="1.0" encoding="UTF-8" standalone="no"?>
<svg
   xmlns:dc="http://purl.org/dc/elements/1.1/"
   xmlns:cc="http://creativecommons.org/ns#"
   xmlns:rdf="http://www.w3.org/1999/02/22-rdf-syntax-ns#"
   xmlns:svg="http://www.w3.org/2000/svg"
   xmlns="http://www.w3.org/2000/svg"
   xmlns:sodipodi="http://sodipodi.sourceforge.net/DTD/sodipodi-0.dtd"
   xmlns:inkscape="http://www.inkscape.org/namespaces/inkscape"
   id="Layer_3"
   data-name="Layer 3"
   viewBox="0 0 50 50"
   version="1.1"
   sodipodi:docname="gui_sound.svg"
   width="50"
   height="50"
   inkscape:version="1.0.1 (3bc2e813f5, 2020-09-07)">
  <metadata
     id="metadata17">
    <rdf:RDF>
      <cc:Work
         rdf:about="">
        <dc:format>image/svg+xml</dc:format>
        <dc:type
           rdf:resource="http://purl.org/dc/dcmitype/StillImage" />
        <dc:title>gui</dc:title>
      </cc:Work>
    </rdf:RDF>
  </metadata>
  <sodipodi:namedview
     pagecolor="#ffffff"
     bordercolor="#666666"
     borderopacity="1"
     objecttolerance="10"
     gridtolerance="10"
     guidetolerance="10"
     inkscape:pageopacity="0"
     inkscape:pageshadow="2"
     inkscape:window-width="1918"
     inkscape:window-height="1039"
     id="namedview15"
     showgrid="false"
     inkscape:zoom="7.9233736"
     inkscape:cx="14.775636"
     inkscape:cy="17.936465"
     inkscape:window-x="0"
     inkscape:window-y="39"
     inkscape:window-maximized="1"
     inkscape:current-layer="Layer_3"
     inkscape:document-rotation="0" />
  <defs
     id="defs4">
    <style
       id="style2">.cls-1{fill:#212121;}</style>
    <filter
       style="color-interpolation-filters:sRGB;"
       inkscape:label="Drop Shadow"
       id="filter910">
      <feFlood
         flood-opacity="0.498039"
         flood-color="rgb(0,0,0)"
         result="flood"
         id="feFlood900" />
      <feComposite
         in="flood"
         in2="SourceGraphic"
         operator="in"
         result="composite1"
         id="feComposite902" />
      <feGaussianBlur
         in="composite1"
         stdDeviation="3"
         result="blur"
         id="feGaussianBlur904" />
      <feOffset
         dx="0"
         dy="0"
         result="offset"
         id="feOffset906" />
      <feComposite
         in="SourceGraphic"
         in2="offset"
         operator="over"
         result="composite2"
         id="feComposite908" />
    </filter>
  </defs>
  <title
     id="title6">gui</title>
  <path
     class="cls-1"
     d="m 23.528097,39.393871 a 2.4973301,2.4973301 0 0 1 -1.72983,-0.70551 l -6.107536,-5.827103 a 3.6485814,3.6485814 0 0 0 -2.585888,-1.015462 l -2.066348,0.02952 A 4.3806592,4.3806592 0 0 1 6.6106046,27.500559 v -5.038938 a 3.0877154,3.0877154 0 0 1 3.0611476,-3.084765 h 1.7711568 a 6.8130468,6.8130468 0 0 0 4.605006,-1.785915 l 6.116392,-5.573237 a 2.332022,2.332022 0 0 1 3.905398,1.720972 v 23.116538 a 2.4914261,2.4914261 0 0 1 -1.535001,2.326119 2.5327531,2.5327531 0 0 1 -1.006607,0.212538 z M 13.155026,31.25541 a 4.2419186,4.2419186 0 0 1 2.951927,1.18077 l 6.104585,5.824151 a 1.936464,1.936464 0 0 0 3.276638,-1.402165 v -23.11949 a 1.7416367,1.7416367 0 0 0 -2.916503,-1.287039 l -6.11344,5.576189 a 7.4122879,7.4122879 0 0 1 -4.991709,1.939416 H 9.6953682 a 2.4973301,2.4973301 0 0 0 -2.4943784,2.494379 v 5.038938 a 3.78437,3.78437 0 0 0 3.8375052,3.78437 l 2.081109,-0.02952 z"
     id="path8"
     style="stroke-width:0.295193" />
  <path
     class="cls-1"
     d="m 32.941791,32.805172 a 0.29519267,0.29519267 0 0 1 -0.206635,-0.507732 9.6439445,9.6439445 0 0 0 -0.218443,-14.042315 0.29519267,0.29519267 0 0 1 0.398511,-0.433934 10.231378,10.231378 0 0 1 0.233203,14.898375 0.29519267,0.29519267 0 0 1 -0.206636,0.0856 z"
     id="path10"
     style="stroke-width:0.295193" />
  <path
     class="cls-1"
     d="m 37.148287,39.199045 a 0.29519267,0.29519267 0 0 1 -0.206635,-0.50478 C 38.2405,37.421984 42.497177,32.716614 42.461755,25.546383 42.441089,18.119336 37.901028,13.387397 36.51067,12.115116 a 0.30183733,0.30183733 0 1 1 0.410318,-0.442788 c 1.434637,1.31656 6.131152,6.199046 6.131152,13.874055 0.02361,7.409337 -4.368852,12.265256 -5.714929,13.578862 a 0.29519267,0.29519267 0 0 1 -0.188924,0.0738 z"
     id="path12"
     style="stroke-width:0.295193" />
</svg>
