<svg id="Layer_3" data-name="Layer 3" xmlns="http://www.w3.org/2000/svg" viewBox="0 0 150.9 149.75"><defs><style>.cls-1{fill:#212121;}</style></defs><title>gui</title><path class="cls-1" d="M30.81,95a22,22,0,1,1,22-22A22.07,22.07,0,0,1,30.81,95Zm0-42.09a20,20,0,1,0,20,20A20.06,20.06,0,0,0,30.81,52.88Z"/><path class="cls-1" d="M121.15,142.18a22,22,0,1,1,22-22A22.06,22.06,0,0,1,121.15,142.18Zm0-42.09a20,20,0,1,0,20,20A20.06,20.06,0,0,0,121.15,100.09Z"/><path class="cls-1" d="M121.15,52.88a22,22,0,1,1,22-22.05A22.06,22.06,0,0,1,121.15,52.88Zm0-42.09a20,20,0,1,0,20,20A20.06,20.06,0,0,0,121.15,10.79Z"/><path class="cls-1" d="M31.15,95.88a22,22,0,1,1,22.05-22A22.06,22.06,0,0,1,31.15,95.88Zm0-42.09a20,20,0,1,0,20.05,20A20.06,20.06,0,0,0,31.15,53.79Z"/><path class="cls-1" d="M102,112.5a1,1,0,0,1-.47-.12L49.34,84.44a1,1,0,0,1,.94-1.76l52.15,27.94a1,1,0,0,1-.47,1.88Z"/><path class="cls-1" d="M49.37,64.31a1,1,0,0,1-.43-1.91L101,37.33a1,1,0,1,1,.87,1.8L49.8,64.21A1.08,1.08,0,0,1,49.37,64.31Z"/></svg>