<?xml version="1.0" encoding="UTF-8" standalone="no"?>
<svg
   xmlns:dc="http://purl.org/dc/elements/1.1/"
   xmlns:cc="http://creativecommons.org/ns#"
   xmlns:rdf="http://www.w3.org/1999/02/22-rdf-syntax-ns#"
   xmlns:svg="http://www.w3.org/2000/svg"
   xmlns="http://www.w3.org/2000/svg"
   xmlns:sodipodi="http://sodipodi.sourceforge.net/DTD/sodipodi-0.dtd"
   xmlns:inkscape="http://www.inkscape.org/namespaces/inkscape"
   id="Layer_3"
   data-name="Layer 3"
   viewBox="0 0 150.22 149.75"
   version="1.1"
   sodipodi:docname="gui_reset.svg"
   inkscape:version="1.0.1 (3bc2e813f5, 2020-09-07)">
  <metadata
     id="metadata17">
    <rdf:RDF>
      <cc:Work
         rdf:about="">
        <dc:format>image/svg+xml</dc:format>
        <dc:type
           rdf:resource="http://purl.org/dc/dcmitype/StillImage" />
        <dc:title>gui</dc:title>
      </cc:Work>
    </rdf:RDF>
  </metadata>
  <sodipodi:namedview
     pagecolor="#ffffff"
     bordercolor="#666666"
     borderopacity="1"
     objecttolerance="10"
     gridtolerance="10"
     guidetolerance="10"
     inkscape:pageopacity="0"
     inkscape:pageshadow="2"
     inkscape:window-width="1918"
     inkscape:window-height="1010"
     id="namedview15"
     showgrid="false"
     inkscape:zoom="1.4848297"
     inkscape:cx="48.330652"
     inkscape:cy="81.495066"
     inkscape:window-x="0"
     inkscape:window-y="39"
     inkscape:window-maximized="1"
     inkscape:current-layer="Layer_3"
     inkscape:document-rotation="0" />
  <defs
     id="defs4">
    <style
       id="style2">.cls-1{fill:#212121;}</style>
    <clipPath
       clipPathUnits="userSpaceOnUse"
       id="clipPath1296">
      <path
         id="path1298"
         style="fill:#ff0000;fill-opacity:1;fill-rule:nonzero;stroke:none"
         d="M -320.89844,16.052734 V 166.66797 h 150.61524 v -29.71289 c -1.38656,-0.94908 -2.77081,-1.90162 -4.16992,-2.83203 -0.67891,-0.45848 -1.36,-0.91387 -2.03711,-1.375 -1.42371,-0.96957 -1.749,-1.23658 -3.33789,-2.2461 -0.41959,-0.26659 -0.85446,-0.50685 -1.28126,-0.76172 -0.54728,-0.32683 -1.09423,-0.65408 -1.64062,-0.98242 -0.22853,-0.13734 -0.45571,-0.2776 -0.68359,-0.41601 -0.27761,-0.16445 -0.55187,-0.33214 -0.83203,-0.49219 -0.13732,-0.0784 -0.28046,-0.14816 -0.41993,-0.22266 -0.62656,-0.33482 -1.2549,-0.67123 -1.85351,-1.05468 -2.32273,-1.48788 -1.84095,-3.61496 -0.16992,-3.83008 -0.43718,-0.92043 -0.13558,-1.80758 0.63671,-2.18555 -0.94444,-0.57176 -1.8784,-1.15841 -2.79296,-1.77734 -2.32814,-1.57557 -1.73075,-3.74142 0.0234,-3.83985 0.58476,-0.0328 1.29831,0.16407 2.07422,0.68946 0.18549,0.12559 0.3794,0.23806 0.56641,0.36132 0.28797,-0.13538 0.63816,-0.20211 1.03711,-0.17773 0.4887,0.0299 1.04978,0.19848 1.66015,0.54688 0.60287,0.34407 0.89608,0.52985 1.17969,0.70117 -0.0135,-0.32808 0.0579,-0.63491 0.22266,-0.88867 -1.61273,-1.44192 -0.90722,-3.34912 0.91015,-3.28907 0.18526,0.006 0.38483,0.0405 0.5918,0.0898 0.003,-0.0905 0.006,-0.18087 0.01,-0.27149 0.0199,-0.42356 0.0764,-0.52793 0.22851,-1.08008 0.0296,-0.10736 0.0909,-0.2731 0.14453,-0.4375 -0.21818,-0.1064 -0.42859,-0.24897 -0.82031,-0.5625 -0.17531,-0.1403 -0.33225,-0.30461 -0.4668,-0.48437 -0.22012,-0.29407 -0.52642,-0.84417 -0.66406,-1.22461 -0.0781,-0.21571 -0.1362,-0.43812 -0.20117,-0.6582 -0.38086,0.0665 -0.76112,0.13612 -1.14258,0.20117 -0.11589,0.0198 -0.22865,0.0496 -0.3457,0.0605 -0.046,0.004 -0.0937,-0.0259 -0.13867,-0.0156 -0.0663,0.0151 -0.1223,0.0583 -0.1836,0.0879 -0.091,0.044 -0.17524,0.0706 -0.26367,0.10742 -0.2551,0.42126 -1.10656,1.04034 -1.02344,1.32031 0.11648,0.0311 0.2725,0.0595 0.4668,0.0762 h 0.002 c 0.0408,0.003 0.0717,0.012 0.11524,0.0137 0.0645,0.002 0.11198,-0.0691 0.17578,-0.0781 0.0505,-0.007 -0.0884,0.0511 -0.13477,0.0723 -0.048,0.0219 -0.0975,0.0409 -0.14648,0.0606 0.0177,-2.8e-4 0.028,0.003 0.0469,0.002 -0.01,9.8e-4 -0.0193,0.002 -0.0293,0.002 -0.008,1.5e-4 -0.0154,-0.002 -0.0234,-0.002 -0.0249,0.01 -0.049,0.0222 -0.0742,0.0312 -0.0499,0.0178 -0.10124,0.0288 -0.15234,0.043 -0.005,-0.002 -0.009,-0.004 -0.0137,-0.006 -0.0461,0.0237 -0.0896,0.0495 -0.16992,0.0879 -0.0961,0.0345 -0.19031,0.0711 -0.28711,0.10352 -0.0254,0.009 -0.054,0.004 -0.0801,0.01 -0.13311,0.031 -0.24509,0.15427 -0.34571,0.23047 v 0.002 c -1.49435,1.13102 -2.64936,-0.27334 -1.20117,-1.46289 0.0598,-0.0492 0.11689,-0.10324 0.17969,-0.14844 0.0944,-0.0679 0.23603,-0.14857 0.36719,-0.22265 -1.31965,-0.60584 -1.35443,-2.53849 0.94336,-3.65039 0.0612,-0.0296 0.11869,-0.0673 0.18359,-0.0879 0.30618,-0.0972 0.61401,-0.18627 0.92578,-0.26368 0.17548,-0.0436 0.35511,-0.0684 0.5332,-0.0996 0.66659,-0.11698 1.33438,-0.21716 1.99805,-0.34961 0.0264,-0.007 0.0537,-0.0129 0.0801,-0.0195 0.0172,-0.009 0.0705,-0.0302 0.10742,-0.041 0.006,-0.002 -0.006,0.006 -0.0137,0.0117 0.20783,-0.066 0.41258,-0.1535 0.6289,-0.16016 0.10949,-0.003 0.22531,-7.1e-4 0.33985,0.002 0.28297,-0.23216 0.60191,-0.41885 0.90234,-0.62891 0.0599,-0.0312 0.12263,-0.0509 0.1836,-0.0781 0.15348,-0.17977 0.27981,-0.30173 0.7207,-0.64843 0.13692,-0.10767 0.2731,-0.22058 0.42969,-0.29688 0.2803,-0.13658 0.57599,-0.24309 0.87304,-0.33789 0.40629,-0.12967 0.75778,-0.14217 1.16602,-0.16797 0.0891,-0.41233 0.22519,-0.85909 0.25391,-1.1875 0.15038,-0.0228 0.29957,-0.0553 0.45117,-0.0684 0.20409,-0.0176 0.18621,0.0203 0.36133,0.0273 0.041,0.001 0.0819,-0.007 0.12304,-0.008 0.0916,-0.002 0.18376,-0.002 0.27539,-0.002 0.031,-0.15932 0.0725,-0.31457 0.14453,-0.46094 0.0937,-0.19047 0.42887,-0.19179 0.70118,-0.17383 0.23047,-0.0591 0.46113,-0.0955 0.69336,-0.0996 0.32919,-0.006 0.66127,0.0229 0.99804,0.0234 0.32489,-0.007 0.64967,-0.008 0.97461,-0.006 0.16335,7.8e-4 0.32689,2e-5 0.49024,0 0.2092,7e-5 0.41775,4e-5 0.62695,0 0.13086,-1e-5 0.26172,0 0.39258,0 V 16.052734 Z m 138.88477,88.277346 c -0.0236,0.007 -0.0466,0.0168 -0.0703,0.0234 0.0206,-0.005 0.0419,-0.0105 0.0625,-0.0156 0.003,-0.002 0.003,-0.004 0.008,-0.008 z m -0.0703,0.0234 c -0.008,0.002 -0.0157,0.004 -0.0234,0.006 -0.005,0.002 -0.0422,0.0143 -0.0312,0.0117 0.0185,-0.004 0.0363,-0.0124 0.0547,-0.0176 z m 8.90039,-3.93555 c -0.002,-1.4e-4 0.004,0.004 0.002,0.004 0.0689,0.0184 0.13746,0.0393 0.20508,0.0625 0.0124,9e-4 0.0247,0.003 0.0371,0.004 -0.10679,-0.037 -0.19397,-0.0668 -0.24414,-0.0703 z m -8.1836,3.76562 c -0.0543,0.0101 -0.10781,0.0213 -0.16211,0.0312 -1.30784,0.2425 -1.08805,0.66645 -0.43554,1.14844 0.0928,-0.15239 0.18719,-0.30447 0.28515,-0.45312 0.1586,-0.24069 0.32945,-0.48042 0.54492,-0.67188 -0.0784,-0.0182 -0.1791,-0.0467 -0.23242,-0.0547 z m 10.47657,0.84961 c -0.0318,0.003 -0.0589,0.006 -0.0938,0.01 -0.0613,0.0295 -0.12508,0.0866 -0.17187,0.18555 0.0113,0.0122 0.0205,0.0267 0.0312,0.0391 0.0697,-0.0313 0.13991,-0.0611 0.20703,-0.0977 0.0821,-0.0447 0.105,-0.0839 0.0996,-0.11328 -0.002,-0.002 -0.02,0.007 -0.0176,0.002 0.003,-0.007 0.0128,-0.01 0.0176,-0.0156 -0.009,-0.0149 -0.046,-0.007 -0.0723,-0.01 z m 0.18554,0.0117 c -0.0201,0.002 -0.0404,0.004 -0.0605,0.006 -0.0228,0.003 0.0462,0.002 0.0684,-0.004 0.003,-6.6e-4 -0.005,-5.6e-4 -0.008,-0.002 z m -15.60547,4.79102 c -0.30577,0.0323 0.5144,0.37003 0.81641,0.42773 0.0793,0.0151 0.15545,-0.012 0.23047,-0.0488 -0.34714,-0.14024 -0.6776,-0.41787 -1.04688,-0.3789 z m 1.06446,0.31054 c 0.0304,0.005 0.0718,0.007 0.10937,0.01 0.001,-6.9e-4 0.003,-6.5e-4 0.004,-0.002 -0.0377,-0.002 -0.0763,-0.002 -0.11328,-0.008 z m 14.96289,2.34375 c -0.008,0.013 -0.016,0.0259 -0.0234,0.0391 0.006,0.001 0.0175,0.003 0.0234,0.004 z m -0.002,2.40821 c -0.0441,0.88685 -0.94264,1.29894 -1.79687,0.63476 0.0105,0.0757 0.0209,0.15138 0.0195,0.22852 0.0439,0.11677 0.0909,0.23307 0.11328,0.35547 0.0119,0.0653 0.009,0.11522 0.0117,0.16992 0.15776,0.0512 0.31504,0.10487 0.47266,0.15625 0.39458,0.1266 0.78771,0.25654 1.18164,0.38476 v -1.92968 z m -0.71679,5.68554 c 0.14822,0.0921 0.11871,0.0778 0.34375,0.21485 0.2407,0.14661 0.18499,0.10926 0.375,0.22461 v -0.20313 c -0.23881,-0.081 -0.47948,-0.1566 -0.71875,-0.23633 z" />
    </clipPath>
  </defs>
  <title
     id="title6">gui</title>
  <path
     id="path838"
     style="color:#000000;font-style:normal;font-variant:normal;font-weight:normal;font-stretch:normal;font-size:medium;line-height:normal;font-family:sans-serif;font-variant-ligatures:normal;font-variant-position:normal;font-variant-caps:normal;font-variant-numeric:normal;font-variant-alternates:normal;font-variant-east-asian:normal;font-feature-settings:normal;font-variation-settings:normal;text-indent:0;text-align:start;text-decoration:none;text-decoration-line:none;text-decoration-style:solid;text-decoration-color:#000000;letter-spacing:normal;word-spacing:normal;text-transform:none;writing-mode:lr-tb;direction:ltr;text-orientation:mixed;dominant-baseline:auto;baseline-shift:baseline;text-anchor:start;white-space:normal;shape-padding:0;shape-margin:0;inline-size:0;clip-rule:nonzero;display:inline;overflow:visible;visibility:visible;opacity:1;isolation:auto;mix-blend-mode:normal;color-interpolation:sRGB;color-interpolation-filters:linearRGB;solid-color:#000000;solid-opacity:1;vector-effect:none;fill:#212121;fill-opacity:1;fill-rule:nonzero;stroke:none;stroke-width:2.152;stroke-linecap:round;stroke-linejoin:round;stroke-miterlimit:4;stroke-dasharray:none;stroke-dashoffset:0;stroke-opacity:1;color-rendering:auto;image-rendering:auto;shape-rendering:auto;text-rendering:auto;enable-background:accumulate;stop-color:#000000;stop-opacity:1"
     d="M 71.447266 16.685547 C 39.27384 16.685544 13.169922 42.443875 13.169922 74.191406 C 13.169922 105.93894 39.27384 131.69727 71.447266 131.69727 C 90.275068 131.69727 107.01567 122.86833 117.67188 109.1875 A 25.514256 27.52677 0 0 1 115.67383 108.25781 C 105.40628 121.22082 89.422844 129.55859 71.447266 129.55859 C 40.444881 129.55859 15.335938 104.78339 15.335938 74.191406 C 15.335938 43.599417 40.444881 18.822263 71.447266 18.822266 C 96.011435 18.822267 116.86233 34.383166 124.46875 56.060547 A 25.514256 27.52677 0 0 1 126.71289 55.947266 C 118.97681 33.139101 97.156528 16.685548 71.447266 16.685547 z " />
  <path
     style="fill:#212121;fill-opacity:1;stroke:#212121;stroke-width:2.152;stroke-linecap:round;stroke-linejoin:round;stroke-miterlimit:4;stroke-dasharray:none;stroke-opacity:1;paint-order:normal"
     d="m 126.73833,77.46565 18.16083,-21.589934 h -39.2486 z"
     id="path1152" />
</svg>
