<svg id="Layer_3" data-name="Layer 3" xmlns="http://www.w3.org/2000/svg" viewBox="0 0 150.22 149.75"><defs><style>.cls-1{fill:#212121;}</style></defs><title>gui</title><path class="cls-1" d="M70.86,126.91A8.46,8.46,0,0,1,65,124.52L44.31,104.78a12.36,12.36,0,0,0-8.76-3.44l-7,.1a14.84,14.84,0,0,1-15-14.82V69.55A10.46,10.46,0,0,1,23.92,59.1h6a23.08,23.08,0,0,0,15.6-6.05L66.24,34.17A7.9,7.9,0,0,1,79.47,40v78.31a8.44,8.44,0,0,1-5.2,7.88A8.58,8.58,0,0,1,70.86,126.91ZM35.72,99.34a14.37,14.37,0,0,1,10,4l20.68,19.73a6.56,6.56,0,0,0,11.1-4.75V40a5.9,5.9,0,0,0-9.88-4.36L46.91,54.53A25.11,25.11,0,0,1,30,61.1h-6a8.46,8.46,0,0,0-8.45,8.45V86.62a12.82,12.82,0,0,0,13,12.82l7.05-.1Z"/><path class="cls-1" d="M102.75,104.59a1,1,0,0,1-.7-1.72,32.67,32.67,0,0,0-.74-47.57,1,1,0,0,1,1.35-1.47,34.66,34.66,0,0,1,.79,50.47A1,1,0,0,1,102.75,104.59Z"/><path class="cls-1" d="M117,126.25a1,1,0,0,1-.7-1.71C120.7,120.23,135.12,104.29,135,80c-.07-25.16-15.45-41.19-20.16-45.5A1,1,0,1,1,116.23,33C121.09,37.46,137,54,137,80c.08,25.1-14.8,41.55-19.36,46A1,1,0,0,1,117,126.25Z"/></svg>