<svg id="Layer_3" data-name="Layer 3" xmlns="http://www.w3.org/2000/svg" viewBox="0 0 150.65 77.54"><title>gui</title><path d="M60,68.79c0-.8-.05-1.6,0-2.4s-.24-1.33-1.25-1.46A93.18,93.18,0,0,1,40.5,60.78c-5.12-1.75-10-3.9-14.29-7.38A17.58,17.58,0,0,1,23,50a9.06,9.06,0,0,1,1-12.32,21,21,0,0,1,6-4.08,38.68,38.68,0,0,1,5-2c.28-.09.63-.34.88.07a2.64,2.64,0,0,1-.91,3,29,29,0,0,0-6.11,4,10.89,10.89,0,0,0-2.1,2.49,4,4,0,0,0,.49,5.2,17.26,17.26,0,0,0,6.42,4.05A68.1,68.1,0,0,0,49.9,54.58c2.81.43,5.63.72,8.45,1.06,1.59.2,1.68.11,1.68-1.49,0-1.31,0-2.62,0-3.93,0-1,.17-1.12,1.06-.61Q67.54,53.3,74,57c1.89,1.09,3.78,2.18,5.69,3.26.72.4.93.72,0,1.23q-9.28,5.33-18.57,10.67c-1,.55-1.09.46-1.11-.65C60,70.62,60,69.71,60,68.79Z"/><path d="M70.42,24.88c2.2-2.74,4.94-2.91,7.77-2.6a6.15,6.15,0,0,1,5.75,5.64A43.09,43.09,0,0,1,84,36.86a7,7,0,0,1-5.38,6.46,15.67,15.67,0,0,1-10-.12,7.17,7.17,0,0,1-5.08-6.94q-.11-9,0-17.92A7.21,7.21,0,0,1,69.28,11a15.68,15.68,0,0,1,9.88.29A7.34,7.34,0,0,1,84,18.64c0,.82-.37,1.08-1.13,1.06-1.38,0-2.77-.05-4.15,0-1,0-1.34-.34-1.37-1.32,0-2.23-1-3.05-3.19-3.07-2.46,0-3.44.85-3.69,3.31a8.43,8.43,0,0,0,0,.87Zm6.68,8.21h0c0-1.06,0-2.11,0-3.17a2.54,2.54,0,0,0-2.67-2.8c-2.41-.19-3.7.47-3.89,2.31a34.29,34.29,0,0,0,0,7.51,2.26,2.26,0,0,0,1.9,2,5.49,5.49,0,0,0,2.7,0,2.29,2.29,0,0,0,1.91-2.34C77.14,35.42,77.1,34.26,77.1,33.09Z"/><path d="M108,27.22c0,2.84,0,5.69,0,8.53,0,3.88-1.81,6.46-5.51,7.6a15.3,15.3,0,0,1-10.19-.27,7,7,0,0,1-4.76-6.92c0-6,0-11.95,0-17.93a7.16,7.16,0,0,1,5-7,15.58,15.58,0,0,1,10.5,0,7.17,7.17,0,0,1,5,7v9Zm-6.89,0c0-2.92,0-5.83,0-8.75,0-2.16-1-3.12-3.28-3.13s-3.39.95-3.39,3.15q0,8.75,0,17.49c0,2.16,1.06,3.13,3.29,3.14s3.37-.93,3.38-3.16C101.16,33,101.15,30.11,101.15,27.2Z"/><path d="M83.86,60.92c0-1.17,0-2.34,0-3.5,0-.88.28-1.24,1.18-1.26,4-.09,8-.44,12-.92,7.36-.89,14.65-2.09,21.53-5a16.72,16.72,0,0,0,5.6-3.55c1.88-1.9,2-3.87.45-6.08A17.74,17.74,0,0,0,119.21,36a36.3,36.3,0,0,0-6.49-3.14A1.55,1.55,0,0,1,111.64,31c.06-.53.33-.71.81-.58,5.28,1.41,10.47,3.08,14.64,6.79,4.64,4.13,4.68,9.71.21,14.43a32.57,32.57,0,0,1-11.22,7.24A89.71,89.71,0,0,1,92.24,65c-2.42.32-4.84.54-7.28.74-.83.07-1.13-.18-1.11-1C83.88,63.47,83.86,62.19,83.86,60.92Z"/><path d="M55.09,26.26c3.67,1.47,4.72,4.18,4.59,7.57a27.08,27.08,0,0,1-.12,3.49,7.13,7.13,0,0,1-5.22,6,15.62,15.62,0,0,1-9.47,0,7.32,7.32,0,0,1-5.4-7.26c-.08-3.17-.08-3.17,3-3.17.88,0,1.75,0,2.63,0,.65,0,.93.28.94.9,0,.92,0,1.83,0,2.74a2.43,2.43,0,0,0,2.4,2.49,8.88,8.88,0,0,0,1.63,0A2.38,2.38,0,0,0,52.57,37a14.52,14.52,0,0,0,0-5.65,2.72,2.72,0,0,0-2.32-2.18,12,12,0,0,0-3.16-.21c-.69.05-1-.2-1-.92,0-1,0-2,0-3,0-.75.34-1,1.06-1s1.68,0,2.52,0a2.87,2.87,0,0,0,3.08-2.87,11.36,11.36,0,0,0-.18-3.81,2.31,2.31,0,0,0-1.8-1.85,5.61,5.61,0,0,0-2.7,0c-1.31.32-1.89,1.15-2,2.67-.12,2.47-.12,2.47-2.56,2.47-1,0-2,0-3.06,0-.68,0-1-.25-1-.95-.33-4.68,1.9-7.81,6.47-8.85a15.26,15.26,0,0,1,8.82.46,7,7,0,0,1,4.72,5.42,12.25,12.25,0,0,1,.13,4.14A6.16,6.16,0,0,1,55.09,26.26Z"/><path d="M117.79,18.17a7.77,7.77,0,0,1-7.65-7.67,7.69,7.69,0,1,1,15.37.08A7.72,7.72,0,0,1,117.79,18.17Zm0-4a3.57,3.57,0,0,0,3.68-3.63,3.69,3.69,0,0,0-3.66-3.69,3.76,3.76,0,0,0-3.66,3.62A3.65,3.65,0,0,0,117.8,14.15Z"/></svg>